
<svg version="1.1" xmlns="http://www.w3.org/2000/svg" viewBox="0 0 225 225">
<path d="M0 0 C3.05594226 3.05594226 5.68266963 5.69819393 8.26953125 9.0390625 C8.84445313 9.77906494 9.419375 10.51906738 10.01171875 11.28149414 C10.60597656 12.05485107 11.20023438 12.82820801 11.8125 13.625 C12.43125 14.42607178 13.05 15.22714355 13.6875 16.05249023 C18.23511447 21.95926464 22.7026374 27.9079152 27 34 C27.58652344 34.79792969 28.17304688 35.59585938 28.77734375 36.41796875 C29.59912109 37.57232422 29.59912109 37.57232422 30.4375 38.75 C30.91058594 39.40484375 31.38367188 40.0596875 31.87109375 40.734375 C36.00410825 49.02900617 35.2107456 63.71414609 32.875 72.5625 C30.50014982 79.09888672 26.60036943 83.88804905 21.0625 88 C19.2688392 89.37751113 19.2688392 89.37751113 18 91 C17.93833516 94.38825709 17.93833516 94.38825709 18.51953125 96.6953125 C21.03414761 108.75729339 18.07638693 123.00827143 13 134 C20.62614034 129.79981611 26.72691758 124.80729038 29.5390625 116.3046875 C30.93598495 109.32007523 30.26580307 101.96191686 29 95 C32.66274066 98.11787015 33.73578169 100.58459578 34.75 105.25 C34.99234375 106.32765625 35.2346875 107.4053125 35.484375 108.515625 C35.65453125 109.33546875 35.8246875 110.1553125 36 111 C37.32 109.02 38.64 107.04 40 105 C40.99 105.495 40.99 105.495 42 106 C42.25602211 112.8635986 42.42967674 119.72594459 42.54931641 126.59326172 C42.59924503 128.92315671 42.66721673 131.25274423 42.75439453 133.58154297 C43.61652579 157.22422497 43.61652579 157.22422497 34.62451172 167.22070312 C33.32537842 168.59645508 33.32537842 168.59645508 32 170 C30.79227219 171.59959859 29.60672914 173.21640817 28.453125 174.85546875 C27.38667058 176.30040547 26.31896209 177.74441746 25.25 179.1875 C21.52358851 184.22100604 17.80575056 189.25930596 14.1328125 194.33203125 C13.50342773 195.19739502 12.87404297 196.06275879 12.22558594 196.9543457 C11.01845376 198.61486908 9.8157599 200.2786307 8.61816406 201.94604492 C7.79783691 203.07103394 7.79783691 203.07103394 6.9609375 204.21875 C6.24623291 205.2077832 6.24623291 205.2077832 5.51708984 206.21679688 C3.86166221 208.16260368 2.09114948 209.54401538 0 211 C-0.07481328 206.05618504 -0.12891154 201.11270811 -0.16479492 196.16845703 C-0.17977234 194.49066417 -0.20016154 192.81290972 -0.22631836 191.13525391 C-0.47702769 174.62776504 -0.47702769 174.62776504 2.31225586 166.97314453 C3.28750433 164.17514732 3.39869592 161.57119298 3.375 158.625 C3.38273437 157.64789063 3.39046875 156.67078125 3.3984375 155.6640625 C2.94171601 152.61029721 1.903155 151.36635674 0 149 C0 148.01 0 147.02 0 146 C2.86867231 147.38264837 5.56024032 148.92148553 8.25 150.625 C9.30960938 151.29402344 9.30960938 151.29402344 10.390625 151.9765625 C10.92171875 152.31429687 11.4528125 152.65203125 12 153 C10.9018807 148.32155425 9.38120802 143.77199457 7.9375 139.19140625 C3.80391758 125.12000275 4.89208686 108.87828601 11.14453125 95.5625 C12.97979404 91.58487865 13.2795352 89.83576286 11.84765625 85.5546875 C10.79974519 83.08036326 9.63875842 80.7331871 8.41796875 78.33203125 C6.94092054 74.8611714 6.46667846 72.72247661 7 69 C10 67 10 67 14 67 C13.30487721 64.30317533 13.30487721 64.30317533 11 62 C7.37 62 3.74 62 0 62 C0 41.54 0 21.08 0 0 Z " fill="#2246DB" transform="translate(112,7)"/>
<path d="M0 0 C0.66 0 1.32 0 2 0 C3.24860418 3.85144195 3.13627363 7.69257231 3.12025452 11.69415283 C3.12110894 12.47344548 3.12196337 13.25273813 3.12284368 14.0556457 C3.12449183 16.6689564 3.11898797 19.28220302 3.11352539 21.89550781 C3.11324335 23.76799518 3.11340158 25.64048266 3.1139679 27.51296997 C3.11425521 32.59935741 3.1083691 37.68572134 3.10139394 42.77210331 C3.09514946 48.08657271 3.09455573 53.40104263 3.09336853 58.71551514 C3.09025845 68.78060504 3.0820494 78.8456841 3.07201904 88.91076922 C3.06084789 100.36892547 3.05534492 111.82708223 3.05032361 123.28524256 C3.03986654 146.85683439 3.02227333 170.42841659 3 194 C2.01 194 1.02 194 0 194 C-4.07691603 189.44344679 -5.1252302 187.0294597 -5.12025452 180.98898315 C-5.12162918 179.70728241 -5.12300385 178.42558167 -5.12442017 177.1050415 C-5.12088078 175.67663551 -5.11724596 174.24822975 -5.11352539 172.81982422 C-5.11324345 171.32201133 -5.11340139 169.82419831 -5.1139679 168.3263855 C-5.11425559 164.25224167 -5.10836338 160.17812709 -5.10139394 156.10399008 C-5.09515574 151.84920492 -5.09455623 147.59441915 -5.09336853 143.33963013 C-5.0902566 135.27901608 -5.08204505 127.21841555 -5.07201904 119.15780747 C-5.06085364 109.98260498 -5.05534637 100.80740186 -5.05032361 91.63219428 C-5.03986233 72.75478852 -5.02226554 53.87739534 -5 35 C-6.32 35 -7.64 35 -9 35 C-9 82.19 -9 129.38 -9 178 C-12 178 -12 178 -14.15911865 176.12068176 C-16.75301189 171.72348619 -16.53119807 168.08587151 -16.45410156 163.0690918 C-16.45468567 162.07349747 -16.45526978 161.07790314 -16.45587158 160.05213928 C-16.45308901 156.76747549 -16.42198787 153.48372366 -16.390625 150.19921875 C-16.38316325 147.91950476 -16.37747001 145.63978435 -16.37347412 143.36006165 C-16.35821274 137.36431116 -16.31892602 131.36894919 -16.2746582 125.37335205 C-16.23371672 119.25351212 -16.21546547 113.13360932 -16.1953125 107.01367188 C-16.15243271 95.00894403 -16.08417483 83.00450434 -16 71 C-17.65 71 -19.3 71 -21 71 C-21 101.69 -21 132.38 -21 164 C-26.91336573 159.26930741 -26.91336573 159.26930741 -28 156 C-28.24050903 153.31707764 -28.24050903 153.31707764 -28.22705078 150.22167969 C-28.22689972 149.0607782 -28.22674866 147.89987671 -28.22659302 146.70379639 C-28.21627045 145.45576233 -28.20594788 144.20772827 -28.1953125 142.921875 C-28.1924826 141.64016418 -28.18965271 140.35845337 -28.18673706 139.03790283 C-28.17911788 135.63810361 -28.15948434 132.23847654 -28.1373291 128.83874512 C-28.11683358 125.36647876 -28.10772744 121.89418447 -28.09765625 118.421875 C-28.07623666 111.61451283 -28.04212156 104.80726469 -28 98 C-28.804375 98.020625 -29.60875 98.04125 -30.4375 98.0625 C-33 98 -33 98 -34 97 C-34.14516703 95.5105704 -34.22268938 94.01446625 -34.2722168 92.51879883 C-34.30441818 91.56302444 -34.33661957 90.60725006 -34.36979675 89.62251282 C-34.48094889 85.1923795 -34.56308807 80.76239312 -34.62475586 76.33129883 C-34.66617821 74.00826225 -34.72730898 71.68548317 -34.80932617 69.36352539 C-35.62760632 45.80886738 -35.62760632 45.80886738 -26.63989258 35.8034668 C-25.76872803 34.87832275 -24.89756348 33.95317871 -24 33 C-22.74580715 31.34154907 -21.51373576 29.66595118 -20.3125 27.96875 C-19.20935827 26.47840747 -18.1052015 24.9888157 -17 23.5 C-13.60599105 18.92273725 -10.22141973 14.34400275 -6.953125 9.67578125 C-6.49292969 9.01964844 -6.03273438 8.36351562 -5.55859375 7.6875 C-4.7063285 6.46634382 -3.85966727 5.24125115 -3.01953125 4.01171875 C-2.06150777 2.63932525 -1.03716835 1.31360372 0 0 Z " fill="#D55132" transform="translate(105,15)"/>
<path d="M0 0 C3.05594226 3.05594226 5.68266963 5.69819393 8.26953125 9.0390625 C8.84445313 9.77906494 9.419375 10.51906738 10.01171875 11.28149414 C10.60597656 12.05485107 11.20023438 12.82820801 11.8125 13.625 C12.43125 14.42607178 13.05 15.22714355 13.6875 16.05249023 C18.23511447 21.95926464 22.7026374 27.9079152 27 34 C27.58652344 34.79792969 28.17304688 35.59585938 28.77734375 36.41796875 C29.59912109 37.57232422 29.59912109 37.57232422 30.4375 38.75 C30.91058594 39.40484375 31.38367188 40.0596875 31.87109375 40.734375 C36.00410825 49.02900617 35.2107456 63.71414609 32.875 72.5625 C30.50807757 79.07706689 26.57813072 83.87882279 21.125 88.0625 C18.09409343 90.48056393 18.03482979 90.69150755 17.5625 94.875 C17.706875 95.90625 17.85125 96.9375 18 98 C17.01 98 16.02 98 15 98 C15 96.68 15 95.36 15 94 C13.515 94.495 13.515 94.495 12 95 C12.22558594 94.154375 12.45117188 93.30875 12.68359375 92.4375 C13.08221978 88.10674812 11.9438319 85.89064556 10.0625 82 C7.88449353 77.47530319 6.28479787 74.07277386 7 69 C10 67 10 67 14 67 C13.30487721 64.30317533 13.30487721 64.30317533 11 62 C7.37 62 3.74 62 0 62 C0 41.54 0 21.08 0 0 Z " fill="#A70C4E" transform="translate(112,7)"/>
<path d="M0 0 C0.66 0 1.32 0 2 0 C2 1.32 2 2.64 2 4 C3.65 4 5.3 4 7 4 C7.81155565 23.6642496 8.13812635 43.27505425 8.09765625 62.95703125 C8.09521424 65.69569369 8.0943145 68.4343561 8.09336853 71.17301941 C8.09030914 77.5540195 8.08217175 83.93500164 8.07201904 90.31599396 C8.06068622 97.60310329 8.05530505 104.89021366 8.05032361 112.17732966 C8.03998193 127.11822963 8.02249177 142.05911299 8 157 C7.01 157 6.02 157 5 157 C0.94963064 152.4731166 -0.1252631 150.0651925 -0.12025452 144.06491089 C-0.12162918 142.80003845 -0.12300385 141.53516602 -0.12442017 140.23196411 C-0.12088078 138.8224485 -0.11724597 137.41293312 -0.11352539 136.00341797 C-0.11324344 134.52530926 -0.1134014 133.04720042 -0.1139679 131.5690918 C-0.11425558 127.5486651 -0.10836351 123.52826805 -0.10139394 119.50784826 C-0.0951556 115.30911756 -0.09455622 111.11038623 -0.09336853 106.91165161 C-0.09025664 98.95728538 -0.08204515 91.00293285 -0.07201904 83.04857266 C-0.06085351 73.99428688 -0.05534634 64.94000047 -0.05032361 55.88570952 C-0.03986243 37.25713191 -0.02226572 18.62856705 0 0 Z " fill="#C73539" transform="translate(100,52)"/>
<path d="M0 0 C0.66 0 1.32 0 2 0 C2 39.93 2 79.86 2 121 C-1 121 -1 121 -3.15911865 119.12068176 C-5.75301189 114.72348619 -5.53119807 111.08587151 -5.45410156 106.0690918 C-5.45468567 105.07349747 -5.45526978 104.07790314 -5.45587158 103.05213928 C-5.45308901 99.76747549 -5.42198787 96.48372366 -5.390625 93.19921875 C-5.38316325 90.91950476 -5.37747001 88.63978435 -5.37347412 86.36006165 C-5.35821274 80.36431116 -5.31892602 74.36894919 -5.2746582 68.37335205 C-5.23371672 62.25351212 -5.21546547 56.13360932 -5.1953125 50.01367188 C-5.15243271 38.00894403 -5.08417483 26.00450434 -5 14 C-6.65 14 -8.3 14 -10 14 C-10 13.01 -10 12.02 -10 11 C-5.545 10.505 -5.545 10.505 -1 10 C-0.67 6.7 -0.34 3.4 0 0 Z " fill="#A5002B" transform="translate(94,72)"/>
<path d="M0 0 C0.66 0 1.32 0 2 0 C3.18630923 4.18560708 3.02669337 8.17303192 2.87890625 12.484375 C2.84348976 13.70776581 2.84348976 13.70776581 2.80735779 14.95587158 C2.73094567 17.5541014 2.64682516 20.15201614 2.5625 22.75 C2.50925681 24.51430764 2.45651657 26.27863053 2.40429688 28.04296875 C2.27536101 32.36217769 2.1395126 36.68112028 2 41 C1.67 41 1.34 41 1 41 C0.505 37.04 0.505 37.04 0 33 C-3.96 33 -7.92 33 -12 33 C-12 34.98 -12 36.96 -12 39 C-12.66 39.66 -13.32 40.32 -14 41 C-14 40.34 -14 39.68 -14 39 C-14.66 39 -15.32 39 -16 39 C-16 39.66 -16 40.32 -16 41 C-18.97 41 -21.94 41 -25 41 C-25 43.31 -25 45.62 -25 48 C-27.97 48.495 -27.97 48.495 -31 49 C-30.95875 50.258125 -30.9175 51.51625 -30.875 52.8125 C-30.7609626 56.29064073 -30.94074319 56.91111478 -33 60 C-35.10644286 55.78711429 -34.9053601 51.54326157 -34 47 C-31.62068519 42.65841881 -28.68101327 38.89907927 -25.60058594 35.03515625 C-22.63485631 31.26421022 -19.83409881 27.37018364 -17 23.5 C-15.80742202 21.8892264 -14.61471506 20.27854828 -13.421875 18.66796875 C-11.22969837 15.69453769 -9.07182458 12.70199515 -6.953125 9.67578125 C-6.49292969 9.01964844 -6.03273438 8.36351562 -5.55859375 7.6875 C-4.7063285 6.46634382 -3.85966727 5.24125115 -3.01953125 4.01171875 C-2.06150777 2.63932525 -1.03716835 1.31360372 0 0 Z " fill="#E38A31" transform="translate(105,15)"/>
<path d="M0 0 C0.66 0 1.32 0 2 0 C2 30.36 2 60.72 2 92 C-3.91336573 87.26930741 -3.91336573 87.26930741 -5 84 C-5.24050903 81.31707764 -5.24050903 81.31707764 -5.22705078 78.22167969 C-5.22689972 77.0607782 -5.22674866 75.89987671 -5.22659302 74.70379639 C-5.21627045 73.45576233 -5.20594788 72.20772827 -5.1953125 70.921875 C-5.1924826 69.64016418 -5.18965271 68.35845337 -5.18673706 67.03790283 C-5.17911788 63.63810361 -5.15948434 60.23847654 -5.1373291 56.83874512 C-5.11683358 53.36647876 -5.10772744 49.89418447 -5.09765625 46.421875 C-5.07623666 39.61451283 -5.04212156 32.80726469 -5 26 C-5.804375 26.020625 -6.60875 26.04125 -7.4375 26.0625 C-10 26 -10 26 -11 25 C-11.07313567 22.46950598 -11.09247527 19.96695163 -11.0625 17.4375 C-11.05798828 16.72658203 -11.05347656 16.01566406 -11.04882812 15.28320312 C-11.03700864 13.52209987 -11.01907263 11.76103964 -11 10 C-10.34 9.67 -9.68 9.34 -9 9 C-9 14.28 -9 19.56 -9 25 C-8.34 25 -7.68 25 -7 25 C-7 21.7 -7 18.4 -7 15 C-6.01 15.66 -5.02 16.32 -4 17 C-3.01 17 -2.02 17 -1 17 C-1 13.37 -1 9.74 -1 6 C-0.67 6 -0.34 6 0 6 C0 4.02 0 2.04 0 0 Z " fill="#A10F44" transform="translate(82,87)"/>
<path d="M0 0 C3.09847044 3.09847044 5.75163971 5.78771464 8.375 9.1796875 C8.96796875 9.94410156 9.5609375 10.70851563 10.171875 11.49609375 C10.77515625 12.28113281 11.3784375 13.06617188 12 13.875 C12.60328125 14.65230469 13.2065625 15.42960937 13.828125 16.23046875 C17.32309156 20.75113201 20.71066582 25.32765031 24 30 C23 32 23 32 22 33 C20.00041636 33.04080783 17.99954746 33.04254356 16 33 C16 30.69 16 28.38 16 26 C13.69 26 11.38 26 9 26 C8.34 28.31 7.68 30.62 7 33 C7.66 33.33 8.32 33.66 9 34 C8.68289062 34.96035156 8.36578125 35.92070313 8.0390625 36.91015625 C6.75872164 41.39134925 6.55434226 45.80075534 6.375 50.4375 C6.33632812 51.26443359 6.29765625 52.09136719 6.2578125 52.94335938 C6.16446908 54.96191073 6.08119039 56.98092331 6 59 C6.99 59.33 7.98 59.66 9 60 C5.62902617 61.49821059 3.79557881 62 0 62 C0 41.54 0 21.08 0 0 Z " fill="#B80B2A" transform="translate(112,7)"/>
<path d="M0 0 C0.33 0 0.66 0 1 0 C1.8674509 18.38482818 2.12747303 36.72169564 2.0625 55.125 C2.05746479 57.65624909 2.05290553 60.18749918 2.04882812 62.71875 C2.03800596 68.81252233 2.0214346 74.90625621 2 81 C1.01 81 0.02 81 -1 81 C-4.38956995 77.21165712 -6.12036636 74.81028266 -6.14526367 69.76000977 C-6.15164352 68.88051163 -6.15802338 68.00101349 -6.16459656 67.09486389 C-6.16570938 66.13672287 -6.1668222 65.17858185 -6.16796875 64.19140625 C-6.17129715 63.19608383 -6.17462555 62.20076141 -6.17805481 61.17527771 C-6.18313113 59.05427513 -6.18546292 56.93326451 -6.18530273 54.81225586 C-6.18745135 51.63445865 -6.20549183 48.45703079 -6.22460938 45.27929688 C-6.25818952 32.71847694 -5.63012109 20.45634175 -4 8 C-2.68 8 -1.36 8 0 8 C0 5.36 0 2.72 0 0 Z " fill="#2231D7" transform="translate(106,128)"/>
<path d="M0 0 C6.57403846 -0.37211538 6.57403846 -0.37211538 8.73046875 1.51171875 C9.35888672 2.24841797 9.35888672 2.24841797 10 3 C4.61908823 10.61899012 -0.82363059 18.19160256 -6.375 25.6875 C-6.87418945 26.37005859 -7.37337891 27.05261719 -7.88769531 27.75585938 C-12.49553732 33.93900543 -12.49553732 33.93900543 -16 36 C-16.66 36 -17.32 36 -18 36 C-18.99 38.475 -18.99 38.475 -20 41 C-20.66 40.34 -21.32 39.68 -22 39 C-24.17967881 41.93456022 -24.17967881 41.93456022 -25 45.5625 C-26 49 -26 49 -28 51 C-28.66 50.67 -29.32 50.34 -30 50 C-30.07505712 46.05315009 -30.12902215 42.10658573 -30.16479492 38.15917969 C-30.18701479 36.16847095 -30.22516595 34.17796032 -30.26367188 32.1875 C-30.32124246 24.58818336 -29.78825267 18.10632453 -27 11 C-26.67 11 -26.34 11 -26 11 C-26 12.65 -26 14.3 -26 16 C-25.34 16 -24.68 16 -24 16 C-24.33 21.28 -24.66 26.56 -25 32 C-22.03 32 -19.06 32 -16 32 C-16 29.36 -16 26.72 -16 24 C-13.36 24 -10.72 24 -8 24 C-8.061875 22.824375 -8.12375 21.64875 -8.1875 20.4375 C-8.21143624 15.95344422 -6.95728742 12.99612849 -5 9 C-5 8.67 -5 8.34 -5 8 C-3.35 8 -1.7 8 0 8 C0 5.36 0 2.72 0 0 Z " fill="#114FEE" transform="translate(144,160)"/>
<path d="M0 0 C0 1.65 0 3.3 0 5 C0.99 5.33 1.98 5.66 3 6 C3.62788946 18.27872722 2.46722515 31.29562733 -4 42 C-4.99 42 -5.98 42 -7 42 C-6.54947266 43.24716797 -6.54947266 43.24716797 -6.08984375 44.51953125 C-5.70957031 45.60621094 -5.32929687 46.69289062 -4.9375 47.8125 C-4.55464844 48.89144531 -4.17179687 49.97039062 -3.77734375 51.08203125 C-3 54 -3 54 -4 57 C-11.75998998 41.40468032 -11.802527 24.74278618 -7.36328125 8.13671875 C-6.16594072 5.3818063 -3.56618729 0 0 0 Z " fill="#4F28A0" transform="translate(128,100)"/>
<path d="M0 0 C0 2.97 0 5.94 0 9 C-0.66 9 -1.32 9 -2 9 C-2 12.63 -2 16.26 -2 20 C-2.99 20.33 -3.98 20.66 -5 21 C-5.33 20.67 -5.66 20.34 -6 20 C-8.00720923 20.28674418 -10.0085944 20.61866701 -12 21 C-13.26582219 24.86723631 -13.1118765 28.73151262 -13.0625 32.75 C-13.05798828 33.44738281 -13.05347656 34.14476562 -13.04882812 34.86328125 C-13.0371002 36.57555803 -13.01916653 38.28779033 -13 40 C-13.804375 40.12375 -14.60875 40.2475 -15.4375 40.375 C-16.283125 40.58125 -17.12875 40.7875 -18 41 C-18.33 41.66 -18.66 42.32 -19 43 C-19.33 42.34 -19.66 41.68 -20 41 C-20.33 43.64 -20.66 46.28 -21 49 C-21.66 49 -22.32 49 -23 49 C-23.495 41.575 -23.495 41.575 -24 34 C-24.33 34 -24.66 34 -25 34 C-25 26.08 -25 18.16 -25 10 C-24.67 10 -24.34 10 -24 10 C-24 12.31 -24 14.62 -24 17 C-23.34 17 -22.68 17 -22 17 C-21.67 15.68 -21.34 14.36 -21 13 C-20.34 13 -19.68 13 -19 13 C-18.34 12.67 -17.68 12.34 -17 12 C-16.67 12.99 -16.34 13.98 -16 15 C-16.33 15.33 -16.66 15.66 -17 16 C-14.03 16.33 -11.06 16.66 -8 17 C-7.67 14.36 -7.34 11.72 -7 9 C-6.34 9 -5.68 9 -5 9 C-5 8.01 -5 7.02 -5 6 C-4.34 6 -3.68 6 -3 6 C-3 4.35 -3 2.7 -3 1 C-1 0 -1 0 0 0 Z " fill="#C72434" transform="translate(96,63)"/>
<path d="M0 0 C2 2 2 2 2 5 C2.66 5 3.32 5 4 5 C4.84447523 7.93557293 5.12209423 10.53445289 5.11352539 13.58496094 C5.11344986 14.48559265 5.11337433 15.38622437 5.11329651 16.31414795 C5.10813522 17.27782288 5.10297394 18.2414978 5.09765625 19.234375 C5.0962413 20.22753723 5.09482635 21.22069946 5.09336853 22.24395752 C5.08777588 25.41266912 5.0752247 28.58130979 5.0625 31.75 C5.05748405 33.89973856 5.05292131 36.04947823 5.04882812 38.19921875 C5.03780886 43.46616999 5.021078 48.73307993 5 54 C2 54 2 54 -0.15869141 52.10522461 C-2.7222372 47.7820028 -2.54012612 44.25332035 -2.4609375 39.31640625 C-2.46002106 38.3832811 -2.45910461 37.45015594 -2.4581604 36.48875427 C-2.4521306 34.51938783 -2.4364033 32.55003029 -2.41162109 30.58081055 C-2.3751676 27.57631384 -2.37060162 24.57305397 -2.37109375 21.56835938 C-2.3612596 19.65103107 -2.34960131 17.73371108 -2.3359375 15.81640625 C-2.33371185 14.92248672 -2.33148621 14.0285672 -2.32919312 13.1075592 C-2.25729938 8.3504013 -1.83381399 4.47020743 0 0 Z " fill="#3E219D" transform="translate(91,139)"/>
<path d="M0 0 C0.66 0.33 1.32 0.66 2 1 C2.53554968 11.43330126 1.33496692 19.8746269 -5.3046875 28.19921875 C-7.0415501 30.04413502 -8.8670067 31.52195454 -10.875 33.0625 C-13.90590657 35.48056393 -13.96517021 35.69150755 -14.4375 39.875 C-14.293125 40.90625 -14.14875 41.9375 -14 43 C-14.99 43 -15.98 43 -17 43 C-17 41.68 -17 40.36 -17 39 C-18.485 39.495 -18.485 39.495 -20 40 C-19.82210937 39.07380859 -19.82210937 39.07380859 -19.640625 38.12890625 C-18.71204784 32.02815428 -19.28524821 28.45170476 -22.05859375 22.97265625 C-23.26050017 20.45413865 -23.64354712 18.73507525 -23 16 C-21.1875 14.1875 -21.1875 14.1875 -19 13 C-18.01 13 -17.02 13 -16 13 C-16.33 17.29 -16.66 21.58 -17 26 C-14.03 25.67 -11.06 25.34 -8 25 C-8.020625 23.700625 -8.04125 22.40125 -8.0625 21.0625 C-8.08399454 19.70834367 -8.07148199 18.35243917 -8 17 C-7.67 16.67 -7.34 16.34 -7 16 C-6.95936168 14.33382885 -6.957279 12.66611905 -7 11 C-2.25 10 -2.25 10 0 10 C0 6.7 0 3.4 0 0 Z " fill="#8B1774" transform="translate(144,62)"/>
<path d="M0 0 C0.99 0 1.98 0 3 0 C3 16.83 3 33.66 3 51 C-2.89067524 46.28745981 -2.89067524 46.28745981 -4 43 C-4.24291992 40.49804688 -4.24291992 40.49804688 -4.23046875 37.71875 C-4.22853516 36.71199219 -4.22660156 35.70523438 -4.22460938 34.66796875 C-4.21236328 33.62253906 -4.20011719 32.57710937 -4.1875 31.5 C-4.18685547 30.45457031 -4.18621094 29.40914062 -4.18554688 28.33203125 C-4.16075406 24.0291003 -4.11776677 20.16514057 -3 16 C-2.7362137 12.37398515 -2.55631397 8.7483838 -2.37890625 5.1171875 C-2 2 -2 2 0 0 Z " fill="#562496" transform="translate(81,128)"/>
<path d="M0 0 C3.19624262 1.53837846 6.21605574 3.28866532 9.25 5.125 C10.14203125 5.66382813 11.0340625 6.20265625 11.953125 6.7578125 C12.96632813 7.37269531 12.96632813 7.37269531 14 8 C13.01 8.33 12.02 8.66 11 9 C8.3125 7.5625 8.3125 7.5625 6 6 C6.02320312 6.68964844 6.04640625 7.37929687 6.0703125 8.08984375 C6.20101884 14.89590962 6.10660971 21.78678059 3 28 C2.91456105 30.10528933 2.89285275 32.21331157 2.90234375 34.3203125 C2.90556641 35.57714844 2.90878906 36.83398438 2.91210938 38.12890625 C2.92048828 39.44761719 2.92886719 40.76632813 2.9375 42.125 C2.94251511 43.46484211 2.94707799 44.804686 2.95117188 46.14453125 C2.96298914 49.42973206 2.97946383 52.71484397 3 56 C4.485 55.505 4.485 55.505 6 55 C6.103125 53.72125 6.20625 52.4425 6.3125 51.125 C6.48828125 48.9453125 6.48828125 48.9453125 7 47 C7.99 46.34 8.98 45.68 10 45 C10.66 45.66 11.32 46.32 12 47 C12.2475 46.401875 12.495 45.80375 12.75 45.1875 C14.16370012 42.71352479 15.65055383 41.56629745 18 40 C18 43.6135361 17.18853724 44.48057154 15.078125 47.34375 C14.46453125 48.17777344 13.8509375 49.01179688 13.21875 49.87109375 C12.24421875 51.17240234 12.24421875 51.17240234 11.25 52.5 C10.29867187 53.80130859 10.29867187 53.80130859 9.328125 55.12890625 C6.46416253 58.989289 3.99106194 62.25191247 0 65 C-0.07481328 60.05618504 -0.12891154 55.11270811 -0.16479492 50.16845703 C-0.17977234 48.49066417 -0.20016154 46.81290972 -0.22631836 45.13525391 C-0.47702769 28.62776504 -0.47702769 28.62776504 2.31225586 20.97314453 C3.28750433 18.17514732 3.39869592 15.57119298 3.375 12.625 C3.38273437 11.64789063 3.39046875 10.67078125 3.3984375 9.6640625 C2.94171601 6.61029721 1.903155 5.36635674 0 3 C0 2.01 0 1.02 0 0 Z " fill="#0F47E4" transform="translate(112,153)"/>
<path d="M0 0 C0.33 0 0.66 0 1 0 C1.33 1.65 1.66 3.3 2 5 C5.12197478 3.6910428 5.12197478 3.6910428 7 1 C7 13.54 7 26.08 7 39 C6.67 37.68 6.34 36.36 6 35 C5.34 35 4.68 35 4 35 C3.505 33.515 3.505 33.515 3 32 C2.34 33.32 1.68 34.64 1 36 C0.67 36 0.34 36 0 36 C0 24.12 0 12.24 0 0 Z " fill="#720D65" transform="translate(89,109)"/>
<path d="M0 0 C4.00814928 3.83228898 7.42828753 7.92522322 10.8125 12.3125 C11.31458984 12.95767578 11.81667969 13.60285156 12.33398438 14.26757812 C13.55905681 15.84267125 14.7799632 17.42100316 16 19 C15.67 19.66 15.34 20.32 15 21 C14.360625 20.835 13.72125 20.67 13.0625 20.5 C11.19173179 19.96073333 11.19173179 19.96073333 10 20 C9.01 22.475 9.01 22.475 8 25 C5.69 25 3.38 25 1 25 C0.05779874 19.47291389 -0.12116149 14.16241648 -0.0625 8.5625 C-0.05798828 7.73556641 -0.05347656 6.90863281 -0.04882812 6.05664062 C-0.03715811 4.03772854 -0.01922718 2.01885426 0 0 Z " fill="#CB3032" transform="translate(112,7)"/>
<path d="M0 0 C0.99 0.33 1.98 0.66 3 1 C3.13277344 1.67546875 3.26554687 2.3509375 3.40234375 3.046875 C3.57894531 3.93890625 3.75554687 4.8309375 3.9375 5.75 C4.19853516 7.07257813 4.19853516 7.07257813 4.46484375 8.421875 C4.78791074 9.9782561 5.14425964 11.52895202 5.5625 13.0625 C6.30873045 16.36723486 6.05628471 19.62291718 6 23 C5.67 23 5.34 23 5 23 C4.67 25.31 4.34 27.62 4 30 C3.01 30.33 2.02 30.66 1 31 C0.34 36.94 -0.32 42.88 -1 49 C-1.33 49 -1.66 49 -2 49 C-2.04982449 43.62891965 -2.08591866 38.25797695 -2.10986328 32.88671875 C-2.11985643 31.06345269 -2.13345551 29.24020238 -2.15087891 27.41699219 C-2.32450751 8.767237 -2.32450751 8.767237 0 0 Z " fill="#6D1B80" transform="translate(102,106)"/>
<path d="M0 0 C0.33 8.91 0.66 17.82 1 27 C1.33 27 1.66 27 2 27 C2 28.98 2 30.96 2 33 C1.01 33 0.02 33 -1 33 C-5.77509779 27.663126 -6.1820025 24.17482695 -6.1875 17.1875 C-6.19974609 16.37990234 -6.21199219 15.57230469 -6.22460938 14.74023438 C-6.23747657 9.50328695 -5.99983361 5.31980699 -2.4375 1.1875 C-1 0 -1 0 0 0 Z " fill="#0C4FEC" transform="translate(106,176)"/>
<path d="M0 0 C2.12508244 3.18762365 2.5020163 5.26512223 3 9 C3.33 9 3.66 9 4 9 C4 15.6 4 22.2 4 29 C1 29 1 29 -1.171875 27.14453125 C-3.78808344 22.64442913 -3.43748645 18.78929471 -3.25 13.6875 C-3.23195313 12.75615234 -3.21390625 11.82480469 -3.1953125 10.86523438 C-3.14834888 8.57575803 -3.08269475 6.28841816 -3 4 C-2.34 4 -1.68 4 -1 4 C-0.67 2.68 -0.34 1.36 0 0 Z " fill="#1947E6" transform="translate(92,164)"/>
<path d="M0 0 C0.66 0.33 1.32 0.66 2 1 C2 1.66 2 2.32 2 3 C2.845625 2.979375 3.69125 2.95875 4.5625 2.9375 C9.81788004 4.5618902 11.98356554 8.58244066 15 13 C14 15 14 15 13 16 C11.00041636 16.04080783 8.99954746 16.04254356 7 16 C7 13.69 7 11.38 7 9 C4.69 9 2.38 9 0 9 C-0.66 11.31 -1.32 13.62 -2 16 C-3.65 16 -5.3 16 -7 16 C-7 13.36 -7 10.72 -7 8 C-5.02 7.67 -3.04 7.34 -1 7 C-0.67 4.69 -0.34 2.38 0 0 Z " fill="#C62033" transform="translate(121,24)"/>
<path d="M0 0 C0.33 0 0.66 0 1 0 C1 7.92 1 15.84 1 24 C0.01 24 -0.98 24 -2 24 C-2.66 26.31 -3.32 28.62 -4 31 C-4.33 31 -4.66 31 -5 31 C-5 22.09 -5 13.18 -5 4 C-3.68 3.67 -2.36 3.34 -1 3 C-0.67 2.01 -0.34 1.02 0 0 Z " fill="#AC0244" transform="translate(105,85)"/>
<path d="M0 0 C1.65 0 3.3 0 5 0 C5 4.95 5 9.9 5 15 C3.35 15.33 1.7 15.66 0 16 C-0.33 16.66 -0.66 17.32 -1 18 C-1.33 17.34 -1.66 16.68 -2 16 C-2.33 18.64 -2.66 21.28 -3 24 C-3.66 24 -4.32 24 -5 24 C-5 18.72 -5 13.44 -5 8 C-4.34 8 -3.68 8 -3 8 C-2.67 6.35 -2.34 4.7 -2 3 C-1.34 3 -0.68 3 0 3 C0 2.01 0 1.02 0 0 Z " fill="#BF0737" transform="translate(78,88)"/>
<path d="M0 0 C0.99 0 1.98 0 3 0 C3.33 0.99 3.66 1.98 4 3 C4.66 2.01 5.32 1.02 6 0 C6.05802698 3.43742918 6.09360486 6.87473253 6.125 10.3125 C6.15013672 11.77719727 6.15013672 11.77719727 6.17578125 13.27148438 C6.18222656 14.20927734 6.18867187 15.14707031 6.1953125 16.11328125 C6.20578613 16.97735596 6.21625977 17.84143066 6.22705078 18.73168945 C6 21 6 21 4 24 C2.68 24.33 1.36 24.66 0 25 C0 16.75 0 8.5 0 0 Z " fill="#CA2E35" transform="translate(100,64)"/>
<path d="M0 0 C3.66274066 3.11787015 4.73578169 5.58459578 5.75 10.25 C6.11351562 11.86648437 6.11351562 11.86648437 6.484375 13.515625 C6.65453125 14.33546875 6.8246875 15.1553125 7 16 C8.32 14.02 9.64 12.04 11 10 C11.66 10.33 12.32 10.66 13 11 C12.67 12.32 12.34 13.64 12 15 C11.67 14.67 11.34 14.34 11 14 C10.236875 14.78375 9.47375 15.5675 8.6875 16.375 C6 19 6 19 3 21 C2.01839318 22.88423378 1.11018723 24.80732997 0.25 26.75 C-3.05825241 33.57941216 -6.36026728 37.54410691 -13.4375 40.375 C-14.283125 40.58125 -15.12875 40.7875 -16 41 C-16 40.34 -16 39.68 -16 39 C-14.4609375 37.95703125 -14.4609375 37.95703125 -12.375 36.8125 C-6.2006627 33.07511353 -1.75250699 28.23331527 0.5390625 21.3046875 C1.93598495 14.32007523 1.26580307 6.96191686 0 0 Z " fill="#36179B" transform="translate(141,102)"/>
<path d="M0 0 C0.66 0 1.32 0 2 0 C3.53166168 4.08443115 2.63081652 7.79455657 2 12 C1.67 12 1.34 12 1 12 C0.67 13.65 0.34 15.3 0 17 C-3 17 -6 17 -9 17 C-11.81131596 19.22562513 -12.82744291 21.66272214 -14 25 C-14.99 24.34 -15.98 23.68 -17 23 C-16.03900391 21.76636719 -16.03900391 21.76636719 -15.05859375 20.5078125 C-14.18435841 19.38062495 -13.310701 18.25298902 -12.4375 17.125 C-11.98439453 16.54016846 -11.53128906 15.95533691 -11.06445312 15.3527832 C-7.65735234 10.92584126 -4.45733293 6.39101542 -1.375 1.73046875 C-0.92125 1.15941406 -0.4675 0.58835937 0 0 Z " fill="#EDAA31" transform="translate(105,15)"/>
<path d="M0 0 C0.33 0 0.66 0 1 0 C1 9.9 1 19.8 1 30 C0.67 29.01 0.34 28.02 0 27 C-1.32 27.33 -2.64 27.66 -4 28 C-4.33 29.98 -4.66 31.96 -5 34 C-5.33 34 -5.66 34 -6 34 C-5.85771699 31.16644901 -5.71126584 28.33321213 -5.5625 25.5 C-5.52318359 24.70851562 -5.48386719 23.91703125 -5.44335938 23.1015625 C-5.17294782 18.02614559 -4.6872858 13.03624555 -4 8 C-2.68 8 -1.36 8 0 8 C0 5.36 0 2.72 0 0 Z " fill="#5D389C" transform="translate(106,128)"/>
<path d="M0 0 C0.33 0 0.66 0 1 0 C1.18451025 16.8929385 1.18451025 16.8929385 0 24 C-0.33 24 -0.66 24 -1 24 C-1.33 21.69 -1.66 19.38 -2 17 C-4.37983903 19.37983903 -3.46423787 25.36147969 -3.62109375 28.58203125 C-4 32 -4 32 -6 36 C-6 26.76 -6 17.52 -6 8 C-5.34 8 -4.68 8 -4 8 C-4 6.35 -4 4.7 -4 3 C-3.01 2.67 -2.02 2.34 -1 2 C-0.67 1.34 -0.34 0.68 0 0 Z " fill="#840D60" transform="translate(83,112)"/>
<path d="M0 0 C-0.33 4.29 -0.66 8.58 -1 13 C2.3 12.67 5.6 12.34 9 12 C8.32942834 14.93375101 7.5040235 16.61941083 5.0859375 18.4453125 C3.08267818 19.6840771 1.06666551 20.87054327 -1 22 C-1.34933594 21.07316406 -1.69867188 20.14632812 -2.05859375 19.19140625 C-2.51363281 17.99386719 -2.96867187 16.79632813 -3.4375 15.5625 C-3.88996094 14.36753906 -4.34242187 13.17257813 -4.80859375 11.94140625 C-5.7144826 9.15554277 -5.7144826 9.15554277 -7 8 C-7.3125 5.625 -7.3125 5.625 -7 3 C-4.51960083 0.51960083 -3.55547616 0 0 0 Z " fill="#941464" transform="translate(128,75)"/>
<path d="M0 0 C1.65 0 3.3 0 5 0 C6.26332183 4.21107278 6.00441956 6.5456709 4.0625 10.375 C3.39025121 11.59188424 2.70765749 12.8033603 2 14 C1.01 14 0.02 14 -1 14 C-0.69964844 14.83144531 -0.39929688 15.66289062 -0.08984375 16.51953125 C0.29042969 17.60621094 0.67070313 18.69289062 1.0625 19.8125 C1.44535156 20.89144531 1.82820313 21.97039062 2.22265625 23.08203125 C3 26 3 26 2 29 C-1.51187832 21.50254814 -4.86945645 14.19529172 -2.328125 5.7734375 C-1.60027646 3.83021923 -0.80524032 1.91244575 0 0 Z " fill="#4B35B0" transform="translate(122,128)"/>
<path d="M0 0 C0.66 0.33 1.32 0.66 2 1 C2 2.65 2 4.3 2 6 C-0.31 6 -2.62 6 -5 6 C-5.52784374 10.68461323 -6 15.28073067 -6 20 C-6 23 -6 23 -7 25 C-7.99 24.67 -8.98 24.34 -10 24 C-9.34 24 -8.68 24 -8 24 C-8.28875 23.360625 -8.5775 22.72125 -8.875 22.0625 C-11.01374552 16.24035943 -12.05866439 10.11868146 -13 4 C-11.783125 3.896875 -10.56625 3.79375 -9.3125 3.6875 C-5.55611104 3.24205211 -3.18966133 2.06389851 0 0 Z " fill="#393BC5" transform="translate(134,138)"/>
<path d="M0 0 C0.66 0 1.32 0 2 0 C2.94137255 2.82411765 3.11725382 4.52918032 3.09765625 7.44921875 C3.09282227 8.72055664 3.09282227 8.72055664 3.08789062 10.01757812 C3.07951172 10.89865234 3.07113281 11.77972656 3.0625 12.6875 C3.05798828 13.58017578 3.05347656 14.47285156 3.04882812 15.39257812 C3.03704983 17.59511987 3.02060164 19.79752599 3 22 C-2.94318738 17.36258562 -2.94318738 17.36258562 -4 14 C-4.20643522 10.14654251 -4.18133323 6.69166634 -3 3 C-2.01 3 -1.02 3 0 3 C0 2.01 0 1.02 0 0 Z " fill="#3734B2" transform="translate(81,157)"/>
<path d="M0 0 C2.10483746 3.15725619 2.2472059 3.87374611 2.22705078 7.47143555 C2.22689972 8.37214279 2.22674866 9.27285004 2.22659302 10.20085144 C2.21627045 11.16968765 2.20594788 12.13852386 2.1953125 13.13671875 C2.1924826 14.13129593 2.18965271 15.12587311 2.18673706 16.15058899 C2.17553489 19.3296813 2.15043014 22.50849272 2.125 25.6875 C2.11497025 27.84179281 2.10584439 29.99609003 2.09765625 32.15039062 C2.07559546 37.43368972 2.04211756 42.71682479 2 48 C1.34 47.67 0.68 47.34 0 47 C-0.33 33.47 -0.66 19.94 -1 6 C-1.66 5.67 -2.32 5.34 -3 5 C-2.01 3.35 -1.02 1.7 0 0 Z " fill="#344BC8" transform="translate(152,114)"/>
<path d="M0 0 C0.33 0 0.66 0 1 0 C1 3.63 1 7.26 1 11 C2.32 11 3.64 11 5 11 C5.55353075 27.8929385 5.55353075 27.8929385 2 35 C1.67 35 1.34 35 1 35 C0.12504821 27.0800587 -0.12590042 19.2765687 -0.0625 11.3125 C-0.05798828 10.21744141 -0.05347656 9.12238281 -0.04882812 7.99414062 C-0.03719156 5.32936691 -0.02084564 2.66471483 0 0 Z " fill="#AA164B" transform="translate(89,85)"/>
<path d="M0 0 C0 1.65 0 3.3 0 5 C0.99 5.33 1.98 5.66 3 6 C3 9.3 3 12.6 3 16 C1.68 15.67 0.36 15.34 -1 15 C-1.33 13.35 -1.66 11.7 -2 10 C-2.33 10.66 -2.66 11.32 -3 12 C-3.66 12 -4.32 12 -5 12 C-5.99 14.97 -6.98 17.94 -8 21 C-8.66 20.67 -9.32 20.34 -10 20 C-9.45904614 17.59743956 -8.89347685 15.2054123 -8.3125 12.8125 C-8.16361328 12.13896484 -8.01472656 11.46542969 -7.86132812 10.77148438 C-6.92904932 7.02408917 -4.76676374 0 0 0 Z " fill="#592588" transform="translate(128,100)"/>
<path d="M0 0 C0.33 0 0.66 0 1 0 C1 2.31 1 4.62 1 7 C1.66 7 2.32 7 3 7 C3.33 5.68 3.66 4.36 4 3 C4.66 3 5.32 3 6 3 C6.66 2.67 7.32 2.34 8 2 C8.33 2.99 8.66 3.98 9 5 C8.67 5.33 8.34 5.66 8 6 C10.31 6.33 12.62 6.66 15 7 C13 9 13 9 9.9375 10.4375 C6.71004465 11.72143001 6.71004465 11.72143001 6 15 C5.01 15 4.02 15 3 15 C2.01 16.32 1.02 17.64 0 19 C0 12.73 0 6.46 0 0 Z " fill="#C53A3B" transform="translate(71,73)"/>
<path d="M0 0 C3.9252025 3.70090521 6.94580156 7.54959656 10 12 C9.34 12 8.68 12 8 12 C8 13.65 8 15.3 8 17 C6.02 17 4.04 17 2 17 C2 15.68 2 14.36 2 13 C1.34 13 0.68 13 0 13 C0 8.71 0 4.42 0 0 Z " fill="#CB4234" transform="translate(112,7)"/>
<path d="M0 0 C0.66 0 1.32 0 2 0 C2 7.92 2 15.84 2 24 C1.34 23.01 0.68 22.02 0 21 C-0.66 22.32 -1.32 23.64 -2 25 C-2.33 25 -2.66 25 -3 25 C-3.42781312 16.20606372 -2.29967196 8.48688461 0 0 Z " fill="#671E7E" transform="translate(92,120)"/>
<path d="M0 0 C0.66 0 1.32 0 2 0 C2 8.25 2 16.5 2 25 C1.34 25 0.68 25 0 25 C-0.33 24.34 -0.66 23.68 -1 23 C-1.33 23.66 -1.66 24.32 -2 25 C-3.32 24.67 -4.64 24.34 -6 24 C-6 21.69 -6 19.38 -6 17 C-4.35 17 -2.7 17 -1 17 C-1 13.37 -1 9.74 -1 6 C-0.67 6 -0.34 6 0 6 C0 4.02 0 2.04 0 0 Z " fill="#AE0940" transform="translate(82,87)"/>
<path d="M0 0 C0.66 0 1.32 0 2 0 C-0.05385446 5.66751121 -3.43191141 10.00847711 -7 14.8125 C-7.64195312 15.69615234 -8.28390625 16.57980469 -8.9453125 17.49023438 C-9.56148437 18.32490234 -10.17765625 19.15957031 -10.8125 20.01953125 C-11.37582031 20.78370361 -11.93914062 21.54787598 -12.51953125 22.33520508 C-13.00808594 22.8845874 -13.49664062 23.43396973 -14 24 C-14.66 24 -15.32 24 -16 24 C-15.731875 23.484375 -15.46375 22.96875 -15.1875 22.4375 C-11.73365898 15.54085467 -11.73365898 15.54085467 -11 8 C-10 7 -10 7 -7.4375 6.9375 C-6.2309375 6.9684375 -6.2309375 6.9684375 -5 7 C-4.67 6.34 -4.34 5.68 -4 5 C-3.34 5 -2.68 5 -2 5 C-1.34 3.35 -0.68 1.7 0 0 Z " fill="#0F4AE2" transform="translate(147,168)"/>
<path d="M0 0 C0.99 0 1.98 0 3 0 C3 6.27 3 12.54 3 19 C2.01 19 1.02 19 0 19 C-0.66 19.33 -1.32 19.66 -2 20 C-2.05379226 17.04142591 -2.09357093 14.08382279 -2.125 11.125 C-2.14175781 10.28324219 -2.15851563 9.44148437 -2.17578125 8.57421875 C-2.18222656 7.76855469 -2.18867187 6.96289062 -2.1953125 6.1328125 C-2.21102295 5.01737061 -2.21102295 5.01737061 -2.22705078 3.87939453 C-2 2 -2 2 0 0 Z " fill="#751F7F" transform="translate(81,128)"/>
<path d="M0 0 C-1.65676016 5.89070279 -6.20960955 11.09208286 -11.2109375 14.51171875 C-12.09652344 15.24841797 -12.09652344 15.24841797 -13 16 C-13.33380814 19.62563814 -13.33380814 19.62563814 -13 23 C-13.99 23 -14.98 23 -16 23 C-16 21.68 -16 20.36 -16 19 C-16.99 19.33 -17.98 19.66 -19 20 C-18.67 16.7 -18.34 13.4 -18 10 C-17.34 10.33 -16.68 10.66 -16 11 C-15.67 11.99 -15.34 12.98 -15 14 C-13.824375 13.01 -13.824375 13.01 -12.625 12 C-10 10 -10 10 -8 10 C-7.62875 8.63875 -7.62875 8.63875 -7.25 7.25 C-5.88970444 3.71323154 -4.21557243 0 0 0 Z " fill="#5E115F" transform="translate(143,82)"/>
<path d="M0 0 C3.19624262 1.53837846 6.21605574 3.28866532 9.25 5.125 C10.14203125 5.66382813 11.0340625 6.20265625 11.953125 6.7578125 C12.96632813 7.37269531 12.96632813 7.37269531 14 8 C13.01 8.33 12.02 8.66 11 9 C8.3125 7.5625 8.3125 7.5625 6 6 C6.02320312 6.68964844 6.04640625 7.37929687 6.0703125 8.08984375 C6.22718951 16.25865396 5.38899563 23.4957954 2 31 C1.34 31 0.68 31 0 31 C0.2165625 30.27296875 0.433125 29.5459375 0.65625 28.796875 C2.64445949 21.61722963 4.14590029 14.45958618 3 7 C2.03828053 5.63879706 1.04183051 4.30091005 0 3 C0 2.01 0 1.02 0 0 Z " fill="#0A33CC" transform="translate(112,153)"/>
<path d="M0 0 C0.66 0.33 1.32 0.66 2 1 C2 3.31 2 5.62 2 8 C0.02 8.33 -1.96 8.66 -4 9 C-3.95875 10.258125 -3.9175 11.51625 -3.875 12.8125 C-3.7609626 16.29064073 -3.94074319 16.91111478 -6 20 C-7.96510837 16.06978326 -7.47530928 11.28395638 -7 7 C-5 3.8125 -5 3.8125 -3 2 C-2.67 2.33 -2.34 2.66 -2 3 C-1.34 2.01 -0.68 1.02 0 0 Z " fill="#E0792D" transform="translate(78,55)"/>
<path d="M0 0 C5.35964223 2.36454804 8.50476127 6.83802847 11 12 C11.16796875 14.7890625 11.16796875 14.7890625 11 17 C10.34 17 9.68 17 9 17 C8 16 7 15 6 14 C3.90010348 12.82425289 3.90010348 12.82425289 2 12 C2 8.66666667 2 5.33333333 2 2 C1.34 2 0.68 2 0 2 C0 1.34 0 0.68 0 0 Z " fill="#B2063F" transform="translate(134,38)"/>
<path d="M0 0 C0.99 0.33 1.98 0.66 3 1 C3.13277344 1.67546875 3.26554687 2.3509375 3.40234375 3.046875 C3.57894531 3.93890625 3.75554687 4.8309375 3.9375 5.75 C4.19853516 7.07257813 4.19853516 7.07257813 4.46484375 8.421875 C4.78791074 9.9782561 5.14425964 11.52895202 5.5625 13.0625 C6.30873045 16.36723486 6.05628471 19.62291718 6 23 C5.34 22.67 4.68 22.34 4 22 C3.3671875 19.27734375 3.3671875 19.27734375 2.875 15.9375 C2.70742187 14.83277344 2.53984375 13.72804688 2.3671875 12.58984375 C2.24601562 11.73519531 2.12484375 10.88054687 2 10 C1.34 11.98 0.68 13.96 0 16 C-0.66 15.67 -1.32 15.34 -2 15 C-1.47462276 9.9697924 -0.89405214 4.98114761 0 0 Z " fill="#741961" transform="translate(102,106)"/>
<path d="M0 0 C0 4.29 0 8.58 0 13 C-1.32 13 -2.64 13 -4 13 C-4.33 9.7 -4.66 6.4 -5 3 C-6.65 3 -8.3 3 -10 3 C-10 2.01 -10 1.02 -10 0 C-6.05523353 -0.80688405 -4.00001715 -1.00000429 0 0 Z " fill="#BC0333" transform="translate(94,83)"/>
<path d="M0 0 C0.66 0 1.32 0 2 0 C2.21684869 4.52002296 2.41374327 9.04030365 2.59204102 13.56201172 C2.65554235 15.10066042 2.72452973 16.63909276 2.79907227 18.17724609 C2.90516922 20.38605641 2.99162696 22.59488916 3.07421875 24.8046875 C3.1302552 25.83914505 3.1302552 25.83914505 3.18742371 26.89450073 C3.2487793 28.83544922 3.2487793 28.83544922 3 32 C2.01 32.66 1.02 33.32 0 34 C0 22.78 0 11.56 0 0 Z " fill="#0241DD" transform="translate(112,184)"/>
<path d="M0 0 C0.33 0 0.66 0 1 0 C1.33 6.93 1.66 13.86 2 21 C2.66 20.34 3.32 19.68 4 19 C4.33 20.98 4.66 22.96 5 25 C5.66 24.01 6.32 23.02 7 22 C7 23.98 7 25.96 7 28 C6.01 28 5.02 28 4 28 C0.7011721 24.31307469 -1.12513714 21.90298175 -1.1328125 16.97265625 C-1.13410156 16.18052734 -1.13539062 15.38839844 -1.13671875 14.57226562 C-1.13285156 13.74404297 -1.12898438 12.91582031 -1.125 12.0625 C-1.12886719 11.23814453 -1.13273437 10.41378906 -1.13671875 9.56445312 C-1.13542969 8.77103516 -1.13414063 7.97761719 -1.1328125 7.16015625 C-1.13168457 6.43449463 -1.13055664 5.70883301 -1.12939453 4.96118164 C-1 3 -1 3 0 0 Z " fill="#0941ED" transform="translate(101,181)"/>
<path d="M0 0 C0.33 0 0.66 0 1 0 C1.08117951 2.41734542 1.14056926 4.83194949 1.1875 7.25 C1.22520508 8.27287109 1.22520508 8.27287109 1.26367188 9.31640625 C1.31137459 12.59199289 1.21085076 14.65348556 -0.51171875 17.484375 C-1.00285156 17.98453125 -1.49398437 18.4846875 -2 19 C-2 18.01 -2 17.02 -2 16 C-2.66 16 -3.32 16 -4 16 C-4.05410687 14.22950311 -4.09284119 12.45853151 -4.125 10.6875 C-4.14820312 9.70136719 -4.17140625 8.71523437 -4.1953125 7.69921875 C-3.93559103 4.10986802 -2.49894486 2.49894486 0 0 Z " fill="#3B2DB1" transform="translate(93,152)"/>
<path d="M0 0 C2.97 0.495 2.97 0.495 6 1 C6 3.64 6 6.28 6 9 C4.02 9.99 2.04 10.98 0 12 C-0.68041782 17.27323808 1.75213663 21.39388711 4 26 C3.34 26.33 2.68 26.66 2 27 C1.15238178 25.29870914 0.3225132 23.58856916 -0.5 21.875 C-0.9640625 20.92367187 -1.428125 19.97234375 -1.90625 18.9921875 C-3.10044687 15.72520605 -3.42981336 13.44827537 -3 10 C0 8 0 8 4 8 C3.525625 7.236875 3.05125 6.47375 2.5625 5.6875 C1 3 1 3 0 0 Z " fill="#860348" transform="translate(122,66)"/>
<path d="M0 0 C0.33 0 0.66 0 1 0 C1.46022727 7.97727273 1.46022727 7.97727273 -0.125 11.5 C-2.64582019 13.51665615 -4.83062828 13.71827807 -8 14 C-7.40049704 10.31733897 -6.75241109 6.65456815 -6 3 C-5.67 3.66 -5.34 4.32 -5 5 C-4.34 5 -3.68 5 -3 5 C-2.67 4.01 -2.34 3.02 -2 2 C-1.67 3.32 -1.34 4.64 -1 6 C-0.67 4.02 -0.34 2.04 0 0 Z " fill="#62299B" transform="translate(128,107)"/>
<path d="M0 0 C0.33 0 0.66 0 1 0 C1 5.94 1 11.88 1 18 C1.99 18.33 2.98 18.66 4 19 C0.62902617 20.49821059 -1.20442119 21 -5 21 C-5 15.72 -5 10.44 -5 5 C-2.43383368 8.84924948 -2.44902324 11.4349304 -2 16 C-1.34 16 -0.68 16 0 16 C0 10.72 0 5.44 0 0 Z " fill="#9D0437" transform="translate(117,48)"/>
<path d="M0 0 C0 2.64 0 5.28 0 8 C-1.32 8 -2.64 8 -4 8 C-4 6.68 -4 5.36 -4 4 C-4.66 4 -5.32 4 -6 4 C-6 3.34 -6 2.68 -6 2 C-7.98 2.33 -9.96 2.66 -12 3 C-12 4.65 -12 6.3 -12 8 C-12.66 8 -13.32 8 -14 8 C-13.67 5.36 -13.34 2.72 -13 0 C-11.20909747 -0.19466332 -9.41723495 -0.38051213 -7.625 -0.5625 C-6.12839844 -0.71912109 -6.12839844 -0.71912109 -4.6015625 -0.87890625 C-2 -1 -2 -1 0 0 Z " fill="#DB6E2D" transform="translate(106,48)"/>
<path d="M0 0 C3.12500425 4.68750637 2.38694579 9.62995703 1.5 15.0625 C1.2525 16.0215625 1.2525 16.0215625 1 17 C0.34 17 -0.32 17 -1 17 C-1.33 18.65 -1.66 20.3 -2 22 C-2.33 22 -2.66 22 -3 22 C-3 16.06 -3 10.12 -3 4 C-2.34 4 -1.68 4 -1 4 C-0.67 2.68 -0.34 1.36 0 0 Z " fill="#2C44CB" transform="translate(92,164)"/>
<path d="M0 0 C0.66 0 1.32 0 2 0 C2.02686553 1.97909398 2.04633375 3.95828971 2.0625 5.9375 C2.07410156 7.03964844 2.08570312 8.14179687 2.09765625 9.27734375 C2 12 2 12 1 13 C-0.65 13 -2.3 13 -4 13 C-4.33 9.7 -4.66 6.4 -5 3 C-4.34 3 -3.68 3 -3 3 C-3 3.66 -3 4.32 -3 5 C-2.01 5 -1.02 5 0 5 C0 3.35 0 1.7 0 0 Z " fill="#CE5A2D" transform="translate(94,51)"/>
<path d="M0 0 C-0.33 2.31 -0.66 4.62 -1 7 C-1.33 6.34 -1.66 5.68 -2 5 C-2.66 5 -3.32 5 -4 5 C-4 5.66 -4 6.32 -4 7 C-6.97 7 -9.94 7 -13 7 C-12.34 6.01 -11.68 5.02 -11 4 C-10.34 4 -9.68 4 -9 4 C-8.566875 3.0409375 -8.566875 3.0409375 -8.125 2.0625 C-6.00428289 -1.82548136 -3.86823244 -0.91616031 0 0 Z " fill="#DE7A32" transform="translate(93,49)"/>
<path d="M0 0 C0 3 0 3 -1.6875 5 C-4.00314739 7.00272207 -6.3282225 8.51567917 -9 10 C-10.125 3.25 -10.125 3.25 -9 1 C-6.93359375 0.5859375 -6.93359375 0.5859375 -4.4375 0.375 C-3.61121094 0.30023438 -2.78492188 0.22546875 -1.93359375 0.1484375 C-0.97646484 0.07496094 -0.97646484 0.07496094 0 0 Z " fill="#7F1D7D" transform="translate(136,87)"/>
<path d="M0 0 C0 2.97 0 5.94 0 9 C-0.66 9 -1.32 9 -2 9 C-2 10.32 -2 11.64 -2 13 C-3.32 13 -4.64 13 -6 13 C-6 14.65 -6 16.3 -6 18 C-6.33 18 -6.66 18 -7 18 C-7 15.03 -7 12.06 -7 9 C-6.34 9 -5.68 9 -5 9 C-5 8.01 -5 7.02 -5 6 C-4.34 6 -3.68 6 -3 6 C-3 4.35 -3 2.7 -3 1 C-1 0 -1 0 0 0 Z " fill="#CC3530" transform="translate(96,63)"/>
<path d="M0 0 C0.33 0 0.66 0 1 0 C1.05416188 1.60379341 1.09286638 3.20811406 1.125 4.8125 C1.14820312 5.70582031 1.17140625 6.59914063 1.1953125 7.51953125 C1 10 1 10 -1 13 C-2.32 13.33 -3.64 13.66 -5 14 C-5 10.04 -5 6.08 -5 2 C-4.34 2 -3.68 2 -3 2 C-3 2.99 -3 3.98 -3 5 C-2.01 5 -1.02 5 0 5 C0 3.35 0 1.7 0 0 Z " fill="#BB0432" transform="translate(105,75)"/>
<path d="M0 0 C0.66 0 1.32 0 2 0 C1.49516338 4.34159496 0.68099266 7.49408652 -2 11 C-2.99 11 -3.98 11 -5 11 C-4.69964844 11.83144531 -4.39929688 12.66289062 -4.08984375 13.51953125 C-3.70957031 14.60621094 -3.32929687 15.69289062 -2.9375 16.8125 C-2.55464844 17.89144531 -2.17179687 18.97039062 -1.77734375 20.08203125 C-1 23 -1 23 -2 26 C-4.85288164 20.26769829 -6.53444296 15.40140935 -7 9 C-5.68 8.67 -4.36 8.34 -3 8 C-2.855625 7.401875 -2.71125 6.80375 -2.5625 6.1875 C-1.30769231 1.30769231 -1.30769231 1.30769231 0 0 Z " fill="#2325AF" transform="translate(126,131)"/>
<path d="M0 0 C0.33 0 0.66 0 1 0 C0.73064056 8.35014271 -1.85911025 14.44395678 -7.51953125 20.671875 C-10.69113991 23.5171176 -13.91269855 24.92951629 -18 26 C-18 25.34 -18 24.68 -18 24 C-16.4609375 22.95703125 -16.4609375 22.95703125 -14.375 21.8125 C-5.51928286 16.3989344 -2.74693026 9.84047368 0 0 Z " fill="#281B9B" transform="translate(143,117)"/>
<path d="M0 0 C0.66 0 1.32 0 2 0 C3.14077657 3.42232972 3.09815117 6.08673217 3.0625 9.6875 C3.05347656 10.86699219 3.04445313 12.04648438 3.03515625 13.26171875 C3.02355469 14.16535156 3.01195313 15.06898438 3 16 C2.67 16 2.34 16 2 16 C2 14.35 2 12.7 2 11 C0.68 11 -0.64 11 -2 11 C-2 8.36 -2 5.72 -2 3 C-1.34 3 -0.68 3 0 3 C0 2.01 0 1.02 0 0 Z " fill="#4834AD" transform="translate(81,157)"/>
<path d="M0 0 C0.33 0 0.66 0 1 0 C1.33 1.65 1.66 3.3 2 5 C2.99 3.68 3.98 2.36 5 1 C5 4.3 5 7.6 5 11 C3.68 11.33 2.36 11.66 1 12 C0.67 13.98 0.34 15.96 0 18 C-0.33 18 -0.66 18 -1 18 C-0.505 9.09 -0.505 9.09 0 0 Z " fill="#4636AD" transform="translate(101,144)"/>
<path d="M0 0 C1.2065625 0.0309375 1.2065625 0.0309375 2.4375 0.0625 C3.97195094 3.13140187 2.98734289 5.76344266 2.4375 9.0625 C1.4475 9.3925 0.4575 9.7225 -0.5625 10.0625 C-1.2225 10.7225 -1.8825 11.3825 -2.5625 12.0625 C-2.75651633 10.25068595 -2.94254375 8.43801468 -3.125 6.625 C-3.22941406 5.61566406 -3.33382812 4.60632813 -3.44140625 3.56640625 C-3.48136719 2.74011719 -3.52132812 1.91382812 -3.5625 1.0625 C-2.5625 0.0625 -2.5625 0.0625 0 0 Z " fill="#D76132" transform="translate(76.5625,62.9375)"/>
<path d="M0 0 C0.99 0 1.98 0 3 0 C3 5.28 3 10.56 3 16 C2.34 16 1.68 16 1 16 C0.67 16.99 0.34 17.98 0 19 C0 12.73 0 6.46 0 0 Z " fill="#BD0240" transform="translate(114,48)"/>
<path d="M0 0 C0.33 0 0.66 0 1 0 C1.33 1.65 1.66 3.3 2 5 C2.66 5 3.32 5 4 5 C4 7.64 4 10.28 4 13 C3.01 13 2.02 13 1 13 C0.01 16.465 0.01 16.465 -1 20 C-1.33 20 -1.66 20 -2 20 C-2.02687279 18.18757948 -2.04633715 16.37504767 -2.0625 14.5625 C-2.07410156 13.55316406 -2.08570312 12.54382813 -2.09765625 11.50390625 C-2 9 -2 9 -1 8 C-0.76924918 6.65252916 -0.58846937 5.29622435 -0.4375 3.9375 C-0.293125 2.638125 -0.14875 1.33875 0 0 Z " fill="#990A58" transform="translate(102,96)"/>
<path d="M0 0 C3.08089673 2.77280706 4.68775452 5.06326356 6 9 C3.29120665 10.35439668 0.99066732 10.06501451 -2 10 C-1.85950482 8.52031676 -1.71245174 7.04125484 -1.5625 5.5625 C-1.48128906 4.73878906 -1.40007812 3.91507813 -1.31640625 3.06640625 C-1 1 -1 1 0 0 Z " fill="#BE0C36" transform="translate(130,30)"/>
<path d="M0 0 C2.44531616 3.66797424 2.23819639 5.51511004 2.1875 9.875 C2.18105469 11.08929688 2.17460937 12.30359375 2.16796875 13.5546875 C2.02448639 16.49774427 1.67933242 19.14136918 1 22 C0.67 22 0.34 22 0 22 C-0.07347656 20.28490234 -0.07347656 20.28490234 -0.1484375 18.53515625 C-0.22345189 17.04424527 -0.29900028 15.55336108 -0.375 14.0625 C-0.4059375 13.30775391 -0.436875 12.55300781 -0.46875 11.77539062 C-0.5726315 9.84492605 -0.77895614 7.92057919 -1 6 C-1.66 5.67 -2.32 5.34 -3 5 C-2.01 3.35 -1.02 1.7 0 0 Z " fill="#4F39AC" transform="translate(152,114)"/>
<path d="M0 0 C0.33 0 0.66 0 1 0 C1 1.65 1 3.3 1 5 C1.66 5 2.32 5 3 5 C3.25 12.625 3.25 12.625 1 16 C0.34 16 -0.32 16 -1 16 C-1.33 16.66 -1.66 17.32 -2 18 C-1.33333333 12 -0.66666667 6 0 0 Z " fill="#2146DC" transform="translate(103,163)"/>
<path d="M0 0 C2.31 0 4.62 0 7 0 C6.125 6.875 6.125 6.875 5 8 C3.33382885 8.04063832 1.66611905 8.042721 0 8 C0 5.36 0 2.72 0 0 Z " fill="#C30B33" transform="translate(114,40)"/>
<path d="M0 0 C0.66 0.33 1.32 0.66 2 1 C1.85904936 2.6254308 1.71207913 4.25034051 1.5625 5.875 C1.48128906 6.77992188 1.40007812 7.68484375 1.31640625 8.6171875 C1 11 1 11 0 13 C-1.98 13 -3.96 13 -6 13 C-4.02 8.71 -2.04 4.42 0 0 Z " fill="#4137BA" transform="translate(143,123)"/>
<path d="M0 0 C0.66 0 1.32 0 2 0 C1.67 0.99 1.34 1.98 1 3 C0.34 3 -0.32 3 -1 3 C-1.268125 3.53625 -1.53625 4.0725 -1.8125 4.625 C-3.20833333 7.41666667 -4.60416667 10.20833333 -6 13 C-6.66 13 -7.32 13 -8 13 C-8.268125 13.598125 -8.53625 14.19625 -8.8125 14.8125 C-9.98493467 16.97224808 -11.19369282 18.35790256 -13 20 C-12.38723871 16.77908673 -11.30220366 14.72756548 -9.34765625 12.109375 C-8.81849609 11.40039062 -8.28933594 10.69140625 -7.74414062 9.9609375 C-7.18919922 9.23132812 -6.63425781 8.50171875 -6.0625 7.75 C-5.23588867 6.63238281 -5.23588867 6.63238281 -4.39257812 5.4921875 C-3.5969043 4.43644531 -3.5969043 4.43644531 -2.78515625 3.359375 C-2.29926025 2.71452148 -1.81336426 2.06966797 -1.31274414 1.40527344 C-0.87953857 0.9415332 -0.44633301 0.47779297 0 0 Z " fill="#DA9443" transform="translate(88,39)"/>
<path d="M0 0 C0.33 0 0.66 0 1 0 C1 6.6 1 13.2 1 20 C0.34 20.33 -0.32 20.66 -1 21 C-2.43069422 13.70345948 -1.33979115 7.26366109 0 0 Z " fill="#012DC9" transform="translate(95,173)"/>
<path d="M0 0 C0.99 0 1.98 0 3 0 C3.33266291 6.20970773 2.45029331 10.28264895 0 16 C-0.33 16 -0.66 16 -1 16 C-0.67 10.72 -0.34 5.44 0 0 Z " fill="#9B0B57" transform="translate(91,104)"/>
<path d="M0 0 C0.66 0.33 1.32 0.66 2 1 C2.20852314 7.40629424 2.1583195 12.92972642 0 19 C-0.66 19 -1.32 19 -2 19 C-1.34 12.73 -0.68 6.46 0 0 Z " fill="#7B0F54" transform="translate(144,62)"/>
<path d="M0 0 C0.66 0 1.32 0 2 0 C3.53166168 4.08443115 2.63081652 7.79455657 2 12 C1.67 12 1.34 12 1 12 C0.67 9.69 0.34 7.38 0 5 C-1.98 7.31 -3.96 9.62 -6 12 C-6.33 11.34 -6.66 10.68 -7 10 C-5.88321917 8.3278148 -4.75633648 6.66237197 -3.625 5 C-2.99851562 4.071875 -2.37203125 3.14375 -1.7265625 2.1875 C-1.15679687 1.465625 -0.58703125 0.74375 0 0 Z " fill="#EAC14D" transform="translate(105,15)"/>
<path d="M0 0 C0.66 0 1.32 0 2 0 C2 5.28 2 10.56 2 16 C1.01 16 0.02 16 -1 16 C-1.02701408 13.89590361 -1.04640223 11.79170822 -1.0625 9.6875 C-1.07410156 8.51574219 -1.08570312 7.34398438 -1.09765625 6.13671875 C-1 3 -1 3 0 0 Z " fill="#821A7F" transform="translate(92,120)"/>
<path d="M0 0 C0.66 0.33 1.32 0.66 2 1 C2 2.32 2 3.64 2 5 C2.99 5.33 3.98 5.66 5 6 C5 8.31 5 10.62 5 13 C4.01 13 3.02 13 2 13 C2 11.68 2 10.36 2 9 C1.01 9.33 0.02 9.66 -1 10 C-0.67 6.7 -0.34 3.4 0 0 Z " fill="#661C73" transform="translate(125,92)"/>
<path d="M0 0 C3.19624262 1.53837846 6.21605574 3.28866532 9.25 5.125 C10.14203125 5.66382813 11.0340625 6.20265625 11.953125 6.7578125 C12.96632813 7.37269531 12.96632813 7.37269531 14 8 C13.01 8.33 12.02 8.66 11 9 C8.3125 7.5625 8.3125 7.5625 6 6 C5.34 6.66 4.68 7.32 4 8 C0 3.375 0 3.375 0 0 Z " fill="#1219B0" transform="translate(112,153)"/>
<path d="M0 0 C0.66 0 1.32 0 2 0 C2.05406122 1.93719378 2.09282025 3.87481921 2.125 5.8125 C2.14820312 6.89144531 2.17140625 7.97039062 2.1953125 9.08203125 C2 12 2 12 0 15 C-1.30459914 12.39080172 -1.1326594 10.41057385 -1.125 7.5 C-1.12757812 6.5203125 -1.13015625 5.540625 -1.1328125 4.53125 C-1 2 -1 2 0 0 Z " fill="#E06D28" transform="translate(72,60)"/>
<path d="M0 0 C2 3 2 3 2 5 C2.66 5.33 3.32 5.66 4 6 C3.4225 5.7525 2.845 5.505 2.25 5.25 C-0.14340851 4.72156818 -0.14340851 4.72156818 -2.125 6.625 C-4.02059183 9.02608299 -5.03729076 11.11187227 -6 14 C-6.99 13.34 -7.98 12.68 -9 12 C-6.03 8.04 -3.06 4.08 0 0 Z " fill="#DCB334" transform="translate(97,26)"/>
<path d="M0 0 C0.33 0 0.66 0 1 0 C1.26404456 6.86515862 0.25841946 13.25846717 -1 20 C-1.33 20 -1.66 20 -2 20 C-2 14.39 -2 8.78 -2 3 C-1.34 3 -0.68 3 0 3 C0 2.01 0 1.02 0 0 Z " fill="#2639C8" transform="translate(102,164)"/>
<path d="M0 0 C0.66 0 1.32 0 2 0 C1.09255778 3.78260126 0.01058149 7.51152256 -1.0625 11.25 C-1.42472656 12.51328125 -1.78695312 13.7765625 -2.16015625 15.078125 C-2.43730469 16.04234375 -2.71445313 17.0065625 -3 18 C-3.66 17.67 -4.32 17.34 -5 17 C-4.35681657 14.5409452 -3.71057848 12.08276476 -3.0625 9.625 C-2.88009766 8.92632812 -2.69769531 8.22765625 -2.50976562 7.5078125 C-1.11328125 2.2265625 -1.11328125 2.2265625 0 0 Z " fill="#4B107A" transform="translate(123,103)"/>
<path d="M0 0 C0 1.32 0 2.64 0 4 C-1.0828125 3.7525 -1.0828125 3.7525 -2.1875 3.5 C-4.86427545 3.02412881 -7.28949487 2.922557 -10 3 C-10 2.01 -10 1.02 -10 0 C-6.33694766 -0.74926071 -3.57644848 -1.2380014 0 0 Z " fill="#C11131" transform="translate(94,83)"/>
<path d="M0 0 C1.65 0 3.3 0 5 0 C4.67 2.64 4.34 5.28 4 8 C3.01 8 2.02 8 1 8 C0.67 5.36 0.34 2.72 0 0 Z " fill="#C41932" transform="translate(101,72)"/>
<path d="M0 0 C0.66 0.33 1.32 0.66 2 1 C1.979375 1.763125 1.95875 2.52625 1.9375 3.3125 C1.87057159 6.10185786 1.87057159 6.10185786 3 9 C2.5625 11.6875 2.5625 11.6875 2 14 C1.67 12.68 1.34 11.36 1 10 C0.34 10 -0.32 10 -1 10 C-1.02689216 8.52093108 -1.04634621 7.04172517 -1.0625 5.5625 C-1.07410156 4.73878906 -1.08570312 3.91507813 -1.09765625 3.06640625 C-1 1 -1 1 0 0 Z " fill="#CD4427" transform="translate(113,10)"/>
<path d="M0 0 C0.33 0 0.66 0 1 0 C1.33 1.98 1.66 3.96 2 6 C2.66 5.01 3.32 4.02 4 3 C4 4.98 4 6.96 4 9 C3.01 9 2.02 9 1 9 C-1.25 6.6875 -1.25 6.6875 -3 4 C-2.67 3.01 -2.34 2.02 -2 1 C-1.67 1.33 -1.34 1.66 -1 2 C-0.67 1.34 -0.34 0.68 0 0 Z " fill="#1036D6" transform="translate(104,200)"/>
<path d="M0 0 C2.60018816 3.90028225 2.15085514 7.47434569 2 12 C1.01 12 0.02 12 -1 12 C-1.14285714 3.42857143 -1.14285714 3.42857143 0 0 Z " fill="#6D238F" transform="translate(103,124)"/>
<path d="M0 0 C-0.50797009 4.3177458 -1.19682779 8.03302114 -3 12 C-3.66 12 -4.32 12 -5 12 C-5.09951212 8.51707567 -4.99721123 5.35425595 -4 2 C-1 0 -1 0 0 0 Z " fill="#6F248A" transform="translate(128,100)"/>
<path d="M0 0 C0.66 0.33 1.32 0.66 2 1 C2 3.64 2 6.28 2 9 C0.68 9 -0.64 9 -2 9 C-2 7.35 -2 5.7 -2 4 C-1.34 4 -0.68 4 0 4 C0 2.68 0 1.36 0 0 Z " fill="#D95D2F" transform="translate(104,47)"/>
<path d="M0 0 C2.31 0 4.62 0 7 0 C7.33 1.32 7.66 2.64 8 4 C7.34 4 6.68 4 6 4 C6 4.66 6 5.32 6 6 C4 6 4 6 1.875 4.125 C0 2 0 2 0 0 Z " fill="#124DF1" transform="translate(144,160)"/>
<path d="M0 0 C0.66 0 1.32 0 2 0 C3.05404945 3.98196457 2.84098656 6.98195309 2 11 C1.01 10.67 0.02 10.34 -1 10 C-0.34 10 0.32 10 1 10 C0.4740625 8.9171875 0.4740625 8.9171875 -0.0625 7.8125 C-1.10409017 4.6877295 -0.89096572 3.11838004 0 0 Z " fill="#2639C6" transform="translate(125,152)"/>
<path d="M0 0 C1.78821774 2.68232661 3.20142604 5.30288961 4.625 8.1875 C5.07101563 9.08855469 5.51703125 9.98960938 5.9765625 10.91796875 C6.31429687 11.60503906 6.65203125 12.29210937 7 13 C6.34 13.66 5.68 14.32 5 15 C4.15733289 13.25447527 3.32619962 11.5033792 2.5 9.75 C2.0359375 8.77546875 1.571875 7.8009375 1.09375 6.796875 C0 4 0 4 0 0 Z " fill="#700850" transform="translate(119,78)"/>
<path d="M0 0 C4.7641112 4.27548441 4.7641112 4.27548441 5.875 7.6875 C6 10 6 10 5 12 C3.5 10.8125 3.5 10.8125 2 9 C1.8125 6.3125 1.8125 6.3125 2 4 C1.34 4 0.68 4 0 4 C0 2.68 0 1.36 0 0 Z " fill="#D15436" transform="translate(112,7)"/>
<path d="M0 0 C-0.50642192 4.35522853 -1.38411497 7.44239635 -4 11 C-4.66 11 -5.32 11 -6 11 C-5.67 10.46375 -5.34 9.9275 -5 9.375 C-3.77300796 6.4608939 -3.85766714 4.13132292 -4 1 C-2 0 -2 0 0 0 Z " fill="#33259F" transform="translate(128,131)"/>
<path d="M0 0 C0.66 0.66 1.32 1.32 2 2 C0.75 5.4375 0.75 5.4375 -1 9 C-3.1875 9.9375 -3.1875 9.9375 -5 10 C-4.34 8.02 -3.68 6.04 -3 4 C-2.34 4 -1.68 4 -1 4 C-0.67 2.68 -0.34 1.36 0 0 Z " fill="#EEA02C" transform="translate(96,30)"/>
<path d="M0 0 C0.33 0 0.66 0 1 0 C1.33 5.28 1.66 10.56 2 16 C-1.63943027 10.54085459 -0.95016409 6.22885348 0 0 Z " fill="#70248B" transform="translate(92,128)"/>
<path d="M0 0 C3.2542015 2.83430453 4.5206753 4.68607774 5 9 C4.01 9.33 3.02 9.66 2 10 C1.34 6.7 0.68 3.4 0 0 Z " fill="#370865" transform="translate(141,102)"/>
<path d="M0 0 C3 1 3 1 4.6875 3.25 C6.06511203 6.1364252 6.26985151 7.85173236 6 11 C5.34 11 4.68 11 4 11 C3.52014033 9.72942818 3.0411407 8.45853152 2.5625 7.1875 C2.16224609 6.12595703 2.16224609 6.12595703 1.75390625 5.04296875 C1.13774814 3.37327604 0.56280765 1.68842296 0 0 Z " fill="#930A3F" transform="translate(139,44)"/>
<path d="M0 0 C1.65 0.33 3.3 0.66 5 1 C3.02 3.97 3.02 3.97 1 7 C0.01 6.67 -0.98 6.34 -2 6 C-1.49396008 3.83125748 -1.00016187 2.00032373 0 0 Z " fill="#831A74" transform="translate(138,80)"/>
<path d="M0 0 C0.33 0 0.66 0 1 0 C0.67 2.64 0.34 5.28 0 8 C-0.66 8 -1.32 8 -2 8 C-2 7.34 -2 6.68 -2 6 C-2.66 6 -3.32 6 -4 6 C-2.84826645 3.53199953 -1.95216435 1.95216435 0 0 Z " fill="#ECB624" transform="translate(105,19)"/>
<path d="M0 0 C0.66 0 1.32 0 2 0 C0.63312778 3.98671063 -1.15195093 6.88494633 -4 10 C-4.66 10 -5.32 10 -6 10 C-4.34643078 6.41726669 -2.32019297 3.19026533 0 0 Z " fill="#0F4BCB" transform="translate(137,182)"/>
<path d="M0 0 C0.99 0 1.98 0 3 0 C3.30466674 5.28089024 3.317124 6.577168 0 11 C0 7.37 0 3.74 0 0 Z " fill="#3D3BBC" transform="translate(91,160)"/>
<path d="M0 0 C0.33 0 0.66 0 1 0 C1.37952295 6.19887485 0.8352113 10.4477112 -2 16 C-2.33 16 -2.66 16 -3 16 C-2.125 9.125 -2.125 9.125 -1 8 C-0.76924918 6.65252916 -0.58846937 5.29622435 -0.4375 3.9375 C-0.2209375 1.9884375 -0.2209375 1.9884375 0 0 Z " fill="#512EA8" transform="translate(105,136)"/>
<path d="M0 0 C0.66 0 1.32 0 2 0 C3.10844919 3.32534757 2.84454356 5.62182575 2 9 C-0.16295027 6.83704973 -0.5534013 5.94755143 -1 3 C-0.67 2.01 -0.34 1.02 0 0 Z " fill="#8A1672" transform="translate(124,82)"/>
<path d="M0 0 C0.66 0.99 1.32 1.98 2 3 C1.360625 3.2475 0.72125 3.495 0.0625 3.75 C-2.18741541 4.81562433 -2.18741541 4.81562433 -2.75 7.125 C-2.8325 7.74375 -2.915 8.3625 -3 9 C-3.33 6.36 -3.66 3.72 -4 1 C-3.01 1 -2.02 1 -1 1 C-0.67 0.67 -0.34 0.34 0 0 Z " fill="#CD4131" transform="translate(78,75)"/>
<path d="M0 0 C0.33 0 0.66 0 1 0 C1 2.64 1 5.28 1 8 C0.01 8 -0.98 8 -2 8 C-1.125 1.125 -1.125 1.125 0 0 Z " fill="#4C35B1" transform="translate(93,152)"/>
<path d="M0 0 C2 3 2 3 1.625 5.1875 C1.41875 5.785625 1.2125 6.38375 1 7 C0.34 6.67 -0.32 6.34 -1 6 C-1.33 6.66 -1.66 7.32 -2 8 C-2.33 6.68 -2.66 5.36 -3 4 C-2.01 3.67 -1.02 3.34 0 3 C0 2.01 0 1.02 0 0 Z " fill="#343ECF" transform="translate(126,146)"/>
<path d="M0 0 C0.66 0.66 1.32 1.32 2 2 C0.02 4.31 -1.96 6.62 -4 9 C-4.66 8.67 -5.32 8.34 -6 8 C-4.26440562 4.942048 -2.61527381 2.36620011 0 0 Z " fill="#0F40CF" transform="translate(129,193)"/>
<path d="M0 0 C0.99 0 1.98 0 3 0 C3 2.64 3 5.28 3 8 C2.34 8 1.68 8 1 8 C0.67 5.36 0.34 2.72 0 0 Z " fill="#303ECD" transform="translate(103,160)"/>
<path d="M0 0 C3.36720387 1.39332574 4.9859524 2.9789286 7 6 C6.67 6.66 6.34 7.32 6 8 C4.68 7.67 3.36 7.34 2 7 C1.7834375 5.824375 1.7834375 5.824375 1.5625 4.625 C1.12201075 2.03578982 1.12201075 2.03578982 0 0 Z " fill="#BB353A" transform="translate(121,20)"/>
<path d="M0 0 C1.32 0 2.64 0 4 0 C3.67 1.98 3.34 3.96 3 6 C2.34 6 1.68 6 1 6 C0.67 4.02 0.34 2.04 0 0 Z " fill="#3E3AB8" transform="translate(121,142)"/>
<path d="M0 0 C2.0625 0.4375 2.0625 0.4375 4 1 C3.67 1.99 3.34 2.98 3 4 C2.67 3.67 2.34 3.34 2 3 C1.01 3.99 0.02 4.98 -1 6 C-1.042721 4.33388095 -1.04063832 2.66617115 -1 1 C-0.67 0.67 -0.34 0.34 0 0 Z " fill="#8E1568" transform="translate(138,72)"/>
<path d="M0 0 C0.66 0 1.32 0 2 0 C2.33 0.66 2.66 1.32 3 2 C3.66 1.67 4.32 1.34 5 1 C5 2.98 5 4.96 5 7 C3.29115995 5.37660195 1.62553283 3.70680947 0 2 C0 1.34 0 0.68 0 0 Z " fill="#0B49D1" transform="translate(89,186)"/>
<path d="M0 0 C2.64 0 5.28 0 8 0 C5.82575883 2.50037734 4.26954202 3.43628586 1 4 C0.67 2.68 0.34 1.36 0 0 Z " fill="#1651F3" transform="translate(128,184)"/>
<path d="M0 0 C0.66 0 1.32 0 2 0 C0.92598892 2.91517292 0.22189824 4.77810176 -2 7 C-2.66 6.67 -3.32 6.34 -4 6 C-2.87816502 3.75633004 -1.60553445 1.92664134 0 0 Z " fill="#700E6C" transform="translate(141,82)"/>
<path d="M0 0 C2 3 2 3 2 5 C2.66 5.33 3.32 5.66 4 6 C3.401875 5.814375 2.80375 5.62875 2.1875 5.4375 C-0.16408762 4.77906313 -0.16408762 4.77906313 -3 6 C-2 4 -1 2 0 0 Z " fill="#E5B345" transform="translate(97,26)"/>
<path d="M0 0 C-1.485 1.485 -1.485 1.485 -3 3 C-3.99 2.67 -4.98 2.34 -6 2 C-6 1.34 -6 0.68 -6 0 C-3.50907189 -1.24546405 -2.58919267 -0.7767578 0 0 Z " fill="#911747" transform="translate(120,70)"/>
</svg>
