<svg xmlns="http://www.w3.org/2000/svg" width="300" height="300" viewBox="0 0 300 300" version="1.1"><path d="M 288.439 138.393 C 288.588 139.754, 289.862 142.236, 291.269 143.908 C 296.973 150.686, 297.230 158.029, 292.126 168.396 C 279.482 194.079, 235.198 217.572, 195.500 219.656 C 172.973 220.839, 158.126 214.753, 153.409 202.401 C 151.697 197.918, 151.694 197.395, 153.340 191.119 C 154.289 187.499, 156.821 181.829, 158.967 178.519 C 163.274 171.873, 164.977 167, 162.993 167 C 160.775 167, 154.939 174.376, 151.228 181.868 C 148.069 188.248, 147.577 190.191, 147.564 196.368 C 147.546 204.744, 149.743 209.811, 155.637 214.987 C 159.852 218.687, 168.955 223.084, 173.500 223.614 C 175.150 223.806, 179.875 224.363, 184 224.851 C 195.961 226.265, 217.790 223.158, 233.500 217.805 C 241.379 215.120, 260.135 206.112, 266.693 201.864 C 281.488 192.279, 291.930 181.386, 297.916 169.290 C 301.076 162.905, 300.920 148.418, 297.636 143.215 C 294.922 138.916, 293.379 137.514, 290.334 136.582 C 288.478 136.014, 288.206 136.274, 288.439 138.393" stroke="none" fill="#e71611" fill-rule="evenodd"/><path d="M 288 153.768 L 288 166.885 283.237 173.191 C 267.028 194.654, 222.596 215.028, 192.074 214.992 C 178.381 214.977, 163.992 210.720, 162.590 206.271 C 161.120 201.604, 160.460 191.611, 161.117 183.970 C 161.517 179.317, 161.712 175.379, 161.551 175.217 C 160.622 174.289, 154.788 185.600, 153.332 191.148 C 151.695 197.390, 151.699 197.923, 153.409 202.401 C 158.126 214.753, 172.973 220.839, 195.500 219.656 C 227.879 217.956, 264.408 201.859, 283.297 180.967 C 289.736 173.845, 294.869 164.395, 295.712 158.109 C 296.382 153.119, 294.026 146.313, 290.475 142.976 L 288 140.651 288 153.768" stroke="none" fill="#ebf137" fill-rule="evenodd"/><path d="M 233 126.039 C 219.698 126.427, 208.865 127.208, 206.500 127.947 C 199.291 130.202, 187.467 136.939, 181.704 142.076 C 174.582 148.423, 165.738 161.712, 163.560 169.338 C 160.463 180.183, 159.994 198.028, 162.590 206.271 C 163.844 210.252, 178.267 214.970, 189.250 214.992 L 193 215 193 193.107 C 193 168.036, 193.864 170, 182.835 170 C 173.239 170, 174.303 168.364, 186.047 165.064 C 197.277 161.907, 205.516 158.253, 212.150 153.488 C 215.112 151.359, 218.173 150, 220.002 150 L 223 150 223 158 L 223 166 242.500 166 C 261.333 166, 262 166.068, 262 168 C 262 169.932, 261.333 170, 242.500 170 L 223 170 223 189.972 L 223 209.944 231.750 206.870 C 255.027 198.695, 276.166 184.285, 285.439 170.271 C 287.923 166.518, 287.973 166.069, 288.086 146.594 C 288.176 130.919, 287.916 126.562, 286.850 125.886 C 285.386 124.958, 268.311 125.007, 233 126.039 M 281.500 190.569 C 270.654 200.314, 249.563 212.390, 234.578 217.436 C 226.414 220.185, 225.986 220.661, 230.119 222.397 C 238.917 226.093, 254.322 225.288, 264.564 220.599 C 269.188 218.482, 270.480 218.271, 273.138 219.198 L 276.268 220.289 273.884 222.122 C 270.685 224.581, 261.059 227.694, 252.557 229.018 C 239.454 231.060, 214.967 229.692, 204.640 226.343 C 201.864 225.442, 198.139 224.986, 195.952 225.280 C 192.317 225.767, 179.583 224.720, 173.827 223.460 C 171.429 222.935, 171.214 223.113, 171.732 225.188 C 172.812 229.514, 186.870 242.226, 195 246.228 C 208.163 252.706, 223.895 254.818, 237.711 251.961 C 261.261 247.090, 280.479 228.707, 286.433 205.356 C 288.040 199.054, 288.593 185.970, 287.250 186.038 C 286.837 186.060, 284.250 188.098, 281.500 190.569 M 220 210.500 C 220 210.775, 220.225 211, 220.500 211 C 220.775 211, 221 210.775, 221 210.500 C 221 210.225, 220.775 210, 220.500 210 C 220.225 210, 220 210.225, 220 210.500 M 217 211.500 C 217 211.775, 217.225 212, 217.500 212 C 217.775 212, 218 211.775, 218 211.500 C 218 211.225, 217.775 211, 217.500 211 C 217.225 211, 217 211.225, 217 211.500 M 212 212.500 C 212 212.775, 212.225 213, 212.500 213 C 212.775 213, 213 212.775, 213 212.500 C 213 212.225, 212.775 212, 212.500 212 C 212.225 212, 212 212.225, 212 212.500 M 207 213.500 C 207 213.775, 207.225 214, 207.500 214 C 207.775 214, 208 213.775, 208 213.500 C 208 213.225, 207.775 213, 207.500 213 C 207.225 213, 207 213.225, 207 213.500 M 198.813 214.683 C 199.534 214.972, 200.397 214.936, 200.729 214.604 C 201.061 214.272, 200.471 214.036, 199.417 214.079 C 198.252 214.127, 198.015 214.364, 198.813 214.683" stroke="none" fill="#30afcb" fill-rule="evenodd"/><path d="M 112.996 27.504 C 99.613 40.977, 82.103 51.845, 59 61.018 C 43.906 67.011, 20.637 73.506, 3.750 76.439 C 0.009 77.089, 0 77.102, 0 82.045 L 0 87 23.475 87 L 46.951 87 47.225 161.750 L 47.500 236.500 50.313 241.840 C 60.361 260.920, 84.685 272.137, 128.083 277.705 C 138.586 279.052, 149.318 279.426, 177.500 279.428 C 209.727 279.431, 214.967 279.200, 227.500 277.226 C 252.752 273.248, 273.643 267.306, 291.682 258.972 L 300 255.129 300 249.723 L 300 244.317 296.134 243.158 C 294.008 242.521, 291.687 242, 290.976 242 C 290.266 242, 284.693 244.454, 278.592 247.452 C 257.986 257.582, 243.920 260.859, 217.497 261.688 C 178.227 262.921, 154.759 254.958, 146.629 237.643 C 141.604 226.940, 141.500 225.253, 141.500 154 L 141.500 87.500 204.146 87.243 C 274.678 86.953, 268.568 87.761, 267.390 78.880 L 266.744 74.015 204.122 73.757 L 141.500 73.500 141.234 46.750 L 140.967 20 130.709 20 L 120.450 20 112.996 27.504 M 289 136 C 289.825 136.533, 290.950 136.969, 291.500 136.969 C 292.050 136.969, 291.825 136.533, 291 136 C 290.175 135.467, 289.050 135.031, 288.500 135.031 C 287.950 135.031, 288.175 135.467, 289 136 M 288 137.500 C 288 137.775, 288.225 138, 288.500 138 C 288.775 138, 289 137.775, 289 137.500 C 289 137.225, 288.775 137, 288.500 137 C 288.225 137, 288 137.225, 288 137.500 M 212.500 153.195 C 206.702 157.629, 196.860 162.048, 186.047 165.075 C 174.304 168.361, 173.236 170, 182.835 170 C 193.866 170, 193 168.026, 193 193.179 L 193 215.144 198.750 214.507 C 205.914 213.714, 214.338 212.175, 219.250 210.762 L 223 209.683 223 189.842 L 223 170 242.500 170 C 261.333 170, 262 169.932, 262 168 C 262 166.068, 261.333 166, 242.500 166 L 223 166 223 158 L 223 150 219.750 150.068 C 217.743 150.111, 214.971 151.306, 212.500 153.195 M 162.405 166.146 C 160.510 168.280, 160.512 168.285, 162.750 167.110 C 163.988 166.461, 165 165.495, 165 164.965 C 165 163.544, 164.521 163.762, 162.405 166.146 M 264.250 220.660 C 254.004 225.485, 237.552 226.105, 229.447 221.973 C 225.991 220.211, 225.391 220.188, 220.127 221.614 C 217.032 222.452, 211.350 223.477, 207.500 223.891 C 200.660 224.627, 200.569 224.674, 203.500 225.938 C 211.379 229.337, 239.296 231.084, 252.597 229.012 C 264.855 227.102, 278.112 221.718, 274.859 219.972 C 271.548 218.194, 269.159 218.348, 264.250 220.660 M 171 224.500 C 171 224.775, 171.225 225, 171.500 225 C 171.775 225, 172 224.775, 172 224.500 C 172 224.225, 171.775 224, 171.500 224 C 171.225 224, 171 224.225, 171 224.500" stroke="none" fill="#1a0c7d" fill-rule="evenodd"/></svg>